<mxfile host="app.diagrams.net" modified="2024-02-14T07:38:40.862Z" agent="Mozilla/5.0 (Windows NT 10.0; Win64; x64) AppleWebKit/537.36 (KHTML, like Gecko) Chrome/121.0.0.0 Safari/537.36" etag="pqLJ44XM-woA-s9B9EyT" version="23.1.4" type="github">
  <diagram id="C5RBs43oDa-KdzZeNtuy" name="Page-1">
    <mxGraphModel dx="1434" dy="900" grid="1" gridSize="10" guides="1" tooltips="1" connect="1" arrows="1" fold="1" page="1" pageScale="1" pageWidth="827" pageHeight="1169" math="0" shadow="0">
      <root>
        <mxCell id="WIyWlLk6GJQsqaUBKTNV-0" />
        <mxCell id="WIyWlLk6GJQsqaUBKTNV-1" parent="WIyWlLk6GJQsqaUBKTNV-0" />
        <mxCell id="A_g3y-qM19uMRvghQuY--43" value="" style="edgeStyle=orthogonalEdgeStyle;rounded=0;orthogonalLoop=1;jettySize=auto;html=1;" edge="1" parent="WIyWlLk6GJQsqaUBKTNV-1" source="WIyWlLk6GJQsqaUBKTNV-3" target="WIyWlLk6GJQsqaUBKTNV-6">
          <mxGeometry relative="1" as="geometry" />
        </mxCell>
        <mxCell id="WIyWlLk6GJQsqaUBKTNV-3" value="Klient a definice jeho problemu" style="rounded=1;whiteSpace=wrap;html=1;fontSize=12;glass=0;strokeWidth=1;shadow=0;fillColor=#d5e8d4;strokeColor=#82b366;" parent="WIyWlLk6GJQsqaUBKTNV-1" vertex="1">
          <mxGeometry x="160" y="20" width="160" height="70" as="geometry" />
        </mxCell>
        <mxCell id="A_g3y-qM19uMRvghQuY--41" value="" style="edgeStyle=orthogonalEdgeStyle;rounded=0;orthogonalLoop=1;jettySize=auto;html=1;" edge="1" parent="WIyWlLk6GJQsqaUBKTNV-1" source="WIyWlLk6GJQsqaUBKTNV-6" target="WIyWlLk6GJQsqaUBKTNV-10">
          <mxGeometry relative="1" as="geometry" />
        </mxCell>
        <mxCell id="WIyWlLk6GJQsqaUBKTNV-6" value="Facebook iOS App" style="rhombus;whiteSpace=wrap;html=1;shadow=0;fontFamily=Helvetica;fontSize=12;align=center;strokeWidth=1;spacing=6;spacingTop=-4;fillColor=#f8cecc;strokeColor=#b85450;" parent="WIyWlLk6GJQsqaUBKTNV-1" vertex="1">
          <mxGeometry x="185" y="130" width="110" height="100" as="geometry" />
        </mxCell>
        <mxCell id="A_g3y-qM19uMRvghQuY--38" value="" style="edgeStyle=orthogonalEdgeStyle;rounded=0;orthogonalLoop=1;jettySize=auto;html=1;" edge="1" parent="WIyWlLk6GJQsqaUBKTNV-1" source="WIyWlLk6GJQsqaUBKTNV-10" target="A_g3y-qM19uMRvghQuY--37">
          <mxGeometry relative="1" as="geometry" />
        </mxCell>
        <mxCell id="A_g3y-qM19uMRvghQuY--42" value="" style="edgeStyle=orthogonalEdgeStyle;rounded=0;orthogonalLoop=1;jettySize=auto;html=1;" edge="1" parent="WIyWlLk6GJQsqaUBKTNV-1" source="WIyWlLk6GJQsqaUBKTNV-10" target="WIyWlLk6GJQsqaUBKTNV-12">
          <mxGeometry relative="1" as="geometry" />
        </mxCell>
        <mxCell id="WIyWlLk6GJQsqaUBKTNV-10" value="Backend Infrastructure" style="rhombus;whiteSpace=wrap;html=1;shadow=0;fontFamily=Helvetica;fontSize=12;align=center;strokeWidth=1;spacing=6;spacingTop=-4;fillColor=#f8cecc;strokeColor=#b85450;" parent="WIyWlLk6GJQsqaUBKTNV-1" vertex="1">
          <mxGeometry x="190" y="270" width="100" height="100" as="geometry" />
        </mxCell>
        <mxCell id="WIyWlLk6GJQsqaUBKTNV-12" value="API" style="rounded=1;whiteSpace=wrap;html=1;fontSize=12;glass=0;strokeWidth=1;shadow=0;fillColor=#ffe6cc;strokeColor=#d79b00;" parent="WIyWlLk6GJQsqaUBKTNV-1" vertex="1">
          <mxGeometry x="330" y="300" width="120" height="40" as="geometry" />
        </mxCell>
        <mxCell id="A_g3y-qM19uMRvghQuY--17" value="" style="edgeStyle=orthogonalEdgeStyle;rounded=0;orthogonalLoop=1;jettySize=auto;html=1;" edge="1" parent="WIyWlLk6GJQsqaUBKTNV-1" source="A_g3y-qM19uMRvghQuY--15" target="A_g3y-qM19uMRvghQuY--16">
          <mxGeometry relative="1" as="geometry" />
        </mxCell>
        <mxCell id="A_g3y-qM19uMRvghQuY--19" value="" style="edgeStyle=orthogonalEdgeStyle;rounded=0;orthogonalLoop=1;jettySize=auto;html=1;" edge="1" parent="WIyWlLk6GJQsqaUBKTNV-1" source="A_g3y-qM19uMRvghQuY--15" target="A_g3y-qM19uMRvghQuY--18">
          <mxGeometry relative="1" as="geometry" />
        </mxCell>
        <mxCell id="A_g3y-qM19uMRvghQuY--15" value="Team:&lt;br&gt;Klient" style="ellipse;whiteSpace=wrap;html=1;fillColor=#f8cecc;strokeColor=#b85450;" vertex="1" parent="WIyWlLk6GJQsqaUBKTNV-1">
          <mxGeometry x="340" y="720" width="120" height="80" as="geometry" />
        </mxCell>
        <mxCell id="A_g3y-qM19uMRvghQuY--31" value="" style="edgeStyle=orthogonalEdgeStyle;rounded=0;orthogonalLoop=1;jettySize=auto;html=1;" edge="1" parent="WIyWlLk6GJQsqaUBKTNV-1" source="A_g3y-qM19uMRvghQuY--16" target="A_g3y-qM19uMRvghQuY--25">
          <mxGeometry relative="1" as="geometry" />
        </mxCell>
        <mxCell id="A_g3y-qM19uMRvghQuY--32" value="" style="edgeStyle=orthogonalEdgeStyle;rounded=0;orthogonalLoop=1;jettySize=auto;html=1;" edge="1" parent="WIyWlLk6GJQsqaUBKTNV-1" source="A_g3y-qM19uMRvghQuY--16" target="A_g3y-qM19uMRvghQuY--18">
          <mxGeometry relative="1" as="geometry" />
        </mxCell>
        <mxCell id="A_g3y-qM19uMRvghQuY--33" value="" style="edgeStyle=orthogonalEdgeStyle;rounded=0;orthogonalLoop=1;jettySize=auto;html=1;" edge="1" parent="WIyWlLk6GJQsqaUBKTNV-1" source="A_g3y-qM19uMRvghQuY--16" target="A_g3y-qM19uMRvghQuY--25">
          <mxGeometry relative="1" as="geometry" />
        </mxCell>
        <mxCell id="A_g3y-qM19uMRvghQuY--16" value="Scrum master" style="rhombus;whiteSpace=wrap;html=1;fillColor=#f8cecc;strokeColor=#b85450;" vertex="1" parent="WIyWlLk6GJQsqaUBKTNV-1">
          <mxGeometry x="260" y="840" width="80" height="80" as="geometry" />
        </mxCell>
        <mxCell id="A_g3y-qM19uMRvghQuY--18" value="Project manager" style="rhombus;whiteSpace=wrap;html=1;fillColor=#f8cecc;strokeColor=#b85450;" vertex="1" parent="WIyWlLk6GJQsqaUBKTNV-1">
          <mxGeometry x="450" y="840" width="80" height="80" as="geometry" />
        </mxCell>
        <mxCell id="A_g3y-qM19uMRvghQuY--28" value="" style="edgeStyle=orthogonalEdgeStyle;rounded=0;orthogonalLoop=1;jettySize=auto;html=1;" edge="1" parent="WIyWlLk6GJQsqaUBKTNV-1" source="A_g3y-qM19uMRvghQuY--24" target="A_g3y-qM19uMRvghQuY--25">
          <mxGeometry relative="1" as="geometry" />
        </mxCell>
        <mxCell id="A_g3y-qM19uMRvghQuY--24" value="Backend devs" style="rhombus;whiteSpace=wrap;html=1;fillColor=#dae8fc;strokeColor=#6c8ebf;" vertex="1" parent="WIyWlLk6GJQsqaUBKTNV-1">
          <mxGeometry x="180" y="950" width="80" height="80" as="geometry" />
        </mxCell>
        <mxCell id="A_g3y-qM19uMRvghQuY--29" value="" style="edgeStyle=orthogonalEdgeStyle;rounded=0;orthogonalLoop=1;jettySize=auto;html=1;" edge="1" parent="WIyWlLk6GJQsqaUBKTNV-1" source="A_g3y-qM19uMRvghQuY--25" target="A_g3y-qM19uMRvghQuY--26">
          <mxGeometry relative="1" as="geometry" />
        </mxCell>
        <mxCell id="A_g3y-qM19uMRvghQuY--25" value="API" style="rhombus;whiteSpace=wrap;html=1;fillColor=#dae8fc;strokeColor=#6c8ebf;" vertex="1" parent="WIyWlLk6GJQsqaUBKTNV-1">
          <mxGeometry x="290" y="950" width="80" height="80" as="geometry" />
        </mxCell>
        <mxCell id="A_g3y-qM19uMRvghQuY--30" value="" style="edgeStyle=orthogonalEdgeStyle;rounded=0;orthogonalLoop=1;jettySize=auto;html=1;" edge="1" parent="WIyWlLk6GJQsqaUBKTNV-1" source="A_g3y-qM19uMRvghQuY--26" target="A_g3y-qM19uMRvghQuY--27">
          <mxGeometry relative="1" as="geometry" />
        </mxCell>
        <mxCell id="A_g3y-qM19uMRvghQuY--26" value="UX/UI" style="rhombus;whiteSpace=wrap;html=1;fillColor=#fff2cc;strokeColor=#d6b656;" vertex="1" parent="WIyWlLk6GJQsqaUBKTNV-1">
          <mxGeometry x="405" y="950" width="80" height="80" as="geometry" />
        </mxCell>
        <mxCell id="A_g3y-qM19uMRvghQuY--27" value="Frontend" style="rhombus;whiteSpace=wrap;html=1;fillColor=#fff2cc;strokeColor=#d6b656;" vertex="1" parent="WIyWlLk6GJQsqaUBKTNV-1">
          <mxGeometry x="520" y="950" width="80" height="80" as="geometry" />
        </mxCell>
        <mxCell id="A_g3y-qM19uMRvghQuY--35" value="" style="edgeStyle=orthogonalEdgeStyle;rounded=0;orthogonalLoop=1;jettySize=auto;html=1;" edge="1" parent="WIyWlLk6GJQsqaUBKTNV-1" source="A_g3y-qM19uMRvghQuY--34" target="A_g3y-qM19uMRvghQuY--26">
          <mxGeometry relative="1" as="geometry" />
        </mxCell>
        <mxCell id="A_g3y-qM19uMRvghQuY--36" value="" style="edgeStyle=orthogonalEdgeStyle;rounded=0;orthogonalLoop=1;jettySize=auto;html=1;" edge="1" parent="WIyWlLk6GJQsqaUBKTNV-1" source="A_g3y-qM19uMRvghQuY--34" target="A_g3y-qM19uMRvghQuY--25">
          <mxGeometry relative="1" as="geometry" />
        </mxCell>
        <mxCell id="A_g3y-qM19uMRvghQuY--34" value="QA/QC" style="ellipse;whiteSpace=wrap;html=1;fillColor=#d5e8d4;strokeColor=#82b366;" vertex="1" parent="WIyWlLk6GJQsqaUBKTNV-1">
          <mxGeometry x="320" y="1070" width="120" height="80" as="geometry" />
        </mxCell>
        <mxCell id="A_g3y-qM19uMRvghQuY--40" value="" style="edgeStyle=orthogonalEdgeStyle;rounded=0;orthogonalLoop=1;jettySize=auto;html=1;" edge="1" parent="WIyWlLk6GJQsqaUBKTNV-1" source="A_g3y-qM19uMRvghQuY--37" target="A_g3y-qM19uMRvghQuY--39">
          <mxGeometry relative="1" as="geometry" />
        </mxCell>
        <mxCell id="A_g3y-qM19uMRvghQuY--45" value="" style="edgeStyle=orthogonalEdgeStyle;rounded=0;orthogonalLoop=1;jettySize=auto;html=1;" edge="1" parent="WIyWlLk6GJQsqaUBKTNV-1" source="A_g3y-qM19uMRvghQuY--37" target="A_g3y-qM19uMRvghQuY--44">
          <mxGeometry relative="1" as="geometry" />
        </mxCell>
        <mxCell id="A_g3y-qM19uMRvghQuY--37" value="Frontedn componets" style="rhombus;whiteSpace=wrap;html=1;fillColor=#f8cecc;strokeColor=#b85450;" vertex="1" parent="WIyWlLk6GJQsqaUBKTNV-1">
          <mxGeometry x="190" y="410" width="100" height="100" as="geometry" />
        </mxCell>
        <mxCell id="A_g3y-qM19uMRvghQuY--39" value="UX/UI" style="rounded=1;whiteSpace=wrap;html=1;fillColor=#ffe6cc;strokeColor=#d79b00;" vertex="1" parent="WIyWlLk6GJQsqaUBKTNV-1">
          <mxGeometry x="330" y="440" width="120" height="40" as="geometry" />
        </mxCell>
        <mxCell id="A_g3y-qM19uMRvghQuY--56" value="" style="edgeStyle=orthogonalEdgeStyle;rounded=0;orthogonalLoop=1;jettySize=auto;html=1;" edge="1" parent="WIyWlLk6GJQsqaUBKTNV-1" source="A_g3y-qM19uMRvghQuY--44" target="A_g3y-qM19uMRvghQuY--54">
          <mxGeometry relative="1" as="geometry" />
        </mxCell>
        <mxCell id="A_g3y-qM19uMRvghQuY--44" value="Testers" style="rhombus;whiteSpace=wrap;html=1;fillColor=#f8cecc;strokeColor=#b85450;" vertex="1" parent="WIyWlLk6GJQsqaUBKTNV-1">
          <mxGeometry x="190" y="550" width="100" height="100" as="geometry" />
        </mxCell>
        <mxCell id="A_g3y-qM19uMRvghQuY--46" value="Scrum master" style="ellipse;whiteSpace=wrap;html=1;fillColor=#d5e8d4;strokeColor=#82b366;" vertex="1" parent="WIyWlLk6GJQsqaUBKTNV-1">
          <mxGeometry x="10" y="420" width="120" height="80" as="geometry" />
        </mxCell>
        <mxCell id="A_g3y-qM19uMRvghQuY--47" value="" style="endArrow=classic;html=1;rounded=0;exitX=0.767;exitY=0.063;exitDx=0;exitDy=0;exitPerimeter=0;" edge="1" parent="WIyWlLk6GJQsqaUBKTNV-1" source="A_g3y-qM19uMRvghQuY--46">
          <mxGeometry width="50" height="50" relative="1" as="geometry">
            <mxPoint x="140" y="370" as="sourcePoint" />
            <mxPoint x="190" y="320" as="targetPoint" />
          </mxGeometry>
        </mxCell>
        <mxCell id="A_g3y-qM19uMRvghQuY--48" value="" style="endArrow=classic;html=1;rounded=0;entryX=-0.02;entryY=0.43;entryDx=0;entryDy=0;entryPerimeter=0;" edge="1" parent="WIyWlLk6GJQsqaUBKTNV-1" target="A_g3y-qM19uMRvghQuY--44">
          <mxGeometry width="50" height="50" relative="1" as="geometry">
            <mxPoint x="110" y="490" as="sourcePoint" />
            <mxPoint x="230" y="520" as="targetPoint" />
          </mxGeometry>
        </mxCell>
        <mxCell id="A_g3y-qM19uMRvghQuY--53" value="" style="endArrow=classic;html=1;rounded=0;exitX=1;exitY=0.5;exitDx=0;exitDy=0;" edge="1" parent="WIyWlLk6GJQsqaUBKTNV-1" source="A_g3y-qM19uMRvghQuY--46">
          <mxGeometry width="50" height="50" relative="1" as="geometry">
            <mxPoint x="140" y="510" as="sourcePoint" />
            <mxPoint x="190" y="460" as="targetPoint" />
          </mxGeometry>
        </mxCell>
        <mxCell id="A_g3y-qM19uMRvghQuY--54" value="Automation and API" style="rounded=1;whiteSpace=wrap;html=1;fillColor=#ffe6cc;strokeColor=#d79b00;" vertex="1" parent="WIyWlLk6GJQsqaUBKTNV-1">
          <mxGeometry x="330" y="580" width="120" height="40" as="geometry" />
        </mxCell>
        <mxCell id="A_g3y-qM19uMRvghQuY--59" value="" style="endArrow=classic;html=1;rounded=0;exitX=0;exitY=0.5;exitDx=0;exitDy=0;" edge="1" parent="WIyWlLk6GJQsqaUBKTNV-1" source="A_g3y-qM19uMRvghQuY--34">
          <mxGeometry width="50" height="50" relative="1" as="geometry">
            <mxPoint x="310" y="1100" as="sourcePoint" />
            <mxPoint x="220" y="1030" as="targetPoint" />
          </mxGeometry>
        </mxCell>
        <mxCell id="A_g3y-qM19uMRvghQuY--60" value="" style="endArrow=classic;html=1;rounded=0;exitX=1;exitY=0.5;exitDx=0;exitDy=0;" edge="1" parent="WIyWlLk6GJQsqaUBKTNV-1" source="A_g3y-qM19uMRvghQuY--34">
          <mxGeometry width="50" height="50" relative="1" as="geometry">
            <mxPoint x="510" y="1080" as="sourcePoint" />
            <mxPoint x="560" y="1030" as="targetPoint" />
          </mxGeometry>
        </mxCell>
        <mxCell id="A_g3y-qM19uMRvghQuY--63" value="" style="edgeStyle=orthogonalEdgeStyle;rounded=0;orthogonalLoop=1;jettySize=auto;html=1;" edge="1" parent="WIyWlLk6GJQsqaUBKTNV-1" source="A_g3y-qM19uMRvghQuY--61" target="A_g3y-qM19uMRvghQuY--62">
          <mxGeometry relative="1" as="geometry" />
        </mxCell>
        <mxCell id="A_g3y-qM19uMRvghQuY--61" value="Technical stack" style="rounded=0;whiteSpace=wrap;html=1;fillColor=#d5e8d4;strokeColor=#82b366;" vertex="1" parent="WIyWlLk6GJQsqaUBKTNV-1">
          <mxGeometry x="660" y="20" width="120" height="60" as="geometry" />
        </mxCell>
        <mxCell id="A_g3y-qM19uMRvghQuY--62" value="Jira, GIT, Slack, Teams/Meet" style="ellipse;whiteSpace=wrap;html=1;fillColor=#e1d5e7;strokeColor=#9673a6;" vertex="1" parent="WIyWlLk6GJQsqaUBKTNV-1">
          <mxGeometry x="660" y="110" width="120" height="80" as="geometry" />
        </mxCell>
        <mxCell id="A_g3y-qM19uMRvghQuY--64" value=".NET/C#" style="ellipse;whiteSpace=wrap;html=1;fillColor=#fff2cc;strokeColor=#d6b656;" vertex="1" parent="WIyWlLk6GJQsqaUBKTNV-1">
          <mxGeometry x="540" y="240" width="120" height="80" as="geometry" />
        </mxCell>
        <mxCell id="A_g3y-qM19uMRvghQuY--65" value="React/Angular" style="ellipse;whiteSpace=wrap;html=1;fillColor=#fff2cc;strokeColor=#d6b656;" vertex="1" parent="WIyWlLk6GJQsqaUBKTNV-1">
          <mxGeometry x="660" y="240" width="120" height="80" as="geometry" />
        </mxCell>
        <mxCell id="A_g3y-qM19uMRvghQuY--66" value="Postman/Playwright" style="ellipse;whiteSpace=wrap;html=1;fillColor=#fff2cc;strokeColor=#d6b656;" vertex="1" parent="WIyWlLk6GJQsqaUBKTNV-1">
          <mxGeometry x="780" y="240" width="120" height="80" as="geometry" />
        </mxCell>
        <mxCell id="A_g3y-qM19uMRvghQuY--72" value="" style="endArrow=classic;startArrow=classic;html=1;rounded=0;entryX=0.083;entryY=0.738;entryDx=0;entryDy=0;entryPerimeter=0;" edge="1" parent="WIyWlLk6GJQsqaUBKTNV-1" target="A_g3y-qM19uMRvghQuY--62">
          <mxGeometry width="50" height="50" relative="1" as="geometry">
            <mxPoint x="600" y="240" as="sourcePoint" />
            <mxPoint x="650" y="190" as="targetPoint" />
          </mxGeometry>
        </mxCell>
        <mxCell id="A_g3y-qM19uMRvghQuY--73" value="" style="endArrow=classic;startArrow=classic;html=1;rounded=0;" edge="1" parent="WIyWlLk6GJQsqaUBKTNV-1" source="A_g3y-qM19uMRvghQuY--65">
          <mxGeometry width="50" height="50" relative="1" as="geometry">
            <mxPoint x="719" y="234" as="sourcePoint" />
            <mxPoint x="720" y="190" as="targetPoint" />
          </mxGeometry>
        </mxCell>
        <mxCell id="A_g3y-qM19uMRvghQuY--74" value="" style="endArrow=classic;startArrow=classic;html=1;rounded=0;exitX=0.5;exitY=0;exitDx=0;exitDy=0;" edge="1" parent="WIyWlLk6GJQsqaUBKTNV-1" source="A_g3y-qM19uMRvghQuY--66">
          <mxGeometry width="50" height="50" relative="1" as="geometry">
            <mxPoint x="800" y="230" as="sourcePoint" />
            <mxPoint x="780" y="160" as="targetPoint" />
          </mxGeometry>
        </mxCell>
      </root>
    </mxGraphModel>
  </diagram>
</mxfile>
